<svg width="0" height="0" class="hidden">
    <symbol version="1.1" id="icon-facebook" xmlns="http://www.w3.org/2000/svg" x="0" y="0" xml:space="preserve" viewBox="0 0 200 200">
            <path d="M94.5 54.6L82.3 66.8c-4.2 4.1-4.2 10.9 0 15l24.4 24.4c4.2 4.2 10.9 4.2 15 0l24.4-24.4c4.2-4.2 4.2-10.9 0-15l-24.4-24.4c-4.2-4.2-10.9-4.1-15 0L94.5 54.6z"></path>
            <path d="M52 74.3l39.4-39.4 39.4 39.4-39.4 39.4L52 74.3z" fill="none" stroke="#2f446a" stroke-width="11.15" stroke-linecap="round" stroke-linejoin="round"></path>
    </symbol>

    <symbol version="1.1" id="icon-instagram" xmlns="http://www.w3.org/2000/svg" x="0" y="0" xml:space="preserve" viewBox="0 0 200 200">
        <path d="M94.5 54.6L82.3 66.8c-4.2 4.1-4.2 10.9 0 15l24.4 24.4c4.2 4.2 10.9 4.2 15 0l24.4-24.4c4.2-4.2 4.2-10.9 0-15l-24.4-24.4c-4.2-4.2-10.9-4.1-15 0L94.5 54.6z"></path>
        <path d="M52 74.3l39.4-39.4 39.4 39.4-39.4 39.4L52 74.3z" fill="none" stroke="#2f446a" stroke-width="11.15" stroke-linecap="round" stroke-linejoin="round"></path>
    </symbol>

    <symbol version="1.1" id="icon-twitter" xmlns="http://www.w3.org/2000/svg" x="0" y="0" xml:space="preserve" viewBox="0 0 200 200">
        <path d="M94.5 54.6L82.3 66.8c-4.2 4.1-4.2 10.9 0 15l24.4 24.4c4.2 4.2 10.9 4.2 15 0l24.4-24.4c4.2-4.2 4.2-10.9 0-15l-24.4-24.4c-4.2-4.2-10.9-4.1-15 0L94.5 54.6z"></path>
        <path d="M52 74.3l39.4-39.4 39.4 39.4-39.4 39.4L52 74.3z" fill="none" stroke="#2f446a" stroke-width="11.15" stroke-linecap="round" stroke-linejoin="round"></path>
    </symbol>

    <symbol version="1.1" id="icon-github" xmlns="http://www.w3.org/2000/svg" x="0" y="0" xml:space="preserve" viewBox="0 0 200 200">
        <path d="M94.5 54.6L82.3 66.8c-4.2 4.1-4.2 10.9 0 15l24.4 24.4c4.2 4.2 10.9 4.2 15 0l24.4-24.4c4.2-4.2 4.2-10.9 0-15l-24.4-24.4c-4.2-4.2-10.9-4.1-15 0L94.5 54.6z"></path>
        <path d="M52 74.3l39.4-39.4 39.4 39.4-39.4 39.4L52 74.3z" fill="none" stroke="#2f446a" stroke-width="11.15" stroke-linecap="round" stroke-linejoin="round"></path>
    </symbol>

    <symbol version="1.1" id="icon-linkedin" xmlns="http://www.w3.org/2000/svg" x="0" y="0" xml:space="preserve" viewBox="0 0 200 200">
        <path d="M94.5 54.6L82.3 66.8c-4.2 4.1-4.2 10.9 0 15l24.4 24.4c4.2 4.2 10.9 4.2 15 0l24.4-24.4c4.2-4.2 4.2-10.9 0-15l-24.4-24.4c-4.2-4.2-10.9-4.1-15 0L94.5 54.6z"></path>
        <path d="M52 74.3l39.4-39.4 39.4 39.4-39.4 39.4L52 74.3z" fill="none" stroke="#2f446a" stroke-width="11.15" stroke-linecap="round" stroke-linejoin="round"></path>
    </symbol>


</svg>




